<?xml version="1.0" encoding="UTF-8" standalone="no"?>
<!-- Created with Inkscape (http://www.inkscape.org/) -->

<svg
   width="64.230713mm"
   height="50.266331mm"
   viewBox="0 0 64.230713 50.266331"
   version="1.1"
   id="svg5"
   xml:space="preserve"
   xmlns:xlink="http://www.w3.org/1999/xlink"
   xmlns="http://www.w3.org/2000/svg"
   xmlns:svg="http://www.w3.org/2000/svg"><defs
     id="defs2"><linearGradient
       id="linearGradient49190"><stop
         style="stop-color:#9c39ee;stop-opacity:1;"
         offset="0"
         id="stop49186" /><stop
         style="stop-color:#9c39ee;stop-opacity:0;"
         offset="1"
         id="stop49188" /></linearGradient><linearGradient
       id="linearGradient42934"><stop
         style="stop-color:#7c27c1;stop-opacity:1;"
         offset="0.26116839"
         id="stop42930" /><stop
         style="stop-color:#7c27c1;stop-opacity:0;"
         offset="1"
         id="stop42932" /></linearGradient><linearGradient
       id="linearGradient42926"><stop
         style="stop-color:#7c00c1;stop-opacity:1;"
         offset="0.52920961"
         id="stop42922" /><stop
         style="stop-color:#7c00c1;stop-opacity:0;"
         offset="1"
         id="stop42924" /></linearGradient><linearGradient
       id="linearGradient9297"><stop
         style="stop-color:#7124b1;stop-opacity:1;"
         offset="0"
         id="stop9293" /><stop
         style="stop-color:#7124b1;stop-opacity:0;"
         offset="1"
         id="stop9295" /></linearGradient><linearGradient
       xlink:href="#linearGradient9297"
       id="linearGradient61066"
       gradientUnits="userSpaceOnUse"
       gradientTransform="matrix(1,0,0,0.99811159,137.53953,-161.69105)"
       x1="17.24929"
       y1="125.86422"
       x2="40.157764"
       y2="125.86422" /><linearGradient
       xlink:href="#linearGradient42926"
       id="linearGradient61068"
       gradientUnits="userSpaceOnUse"
       gradientTransform="translate(137.53953,-161.96955)"
       x1="27.187313"
       y1="129.41132"
       x2="54.334419"
       y2="129.41132" /><linearGradient
       xlink:href="#linearGradient42934"
       id="linearGradient61070"
       gradientUnits="userSpaceOnUse"
       gradientTransform="matrix(1,0,0,0.69386459,137.53953,-114.8404)"
       x1="68.14669"
       y1="129.12473"
       x2="75.727615"
       y2="129.12473" /><linearGradient
       xlink:href="#linearGradient49190"
       id="linearGradient61072"
       gradientUnits="userSpaceOnUse"
       gradientTransform="translate(119.39744,-11.93221)"
       x1="62.332092"
       y1="110.83238"
       x2="75.332092"
       y2="110.83238" /></defs><g
     id="layer6-4"
     transform="translate(-149.03643,57.691404)"><text
       xml:space="preserve"
       style="font-weight:800;font-size:70.5556px;font-family:Poppins;-inkscape-font-specification:'Poppins Ultra-Bold';fill:#9c39ee;fill-opacity:1;stroke-width:0"
       x="145.29698"
       y="-7.9284925"
       id="text460-8-8"><tspan
         id="tspan458-9-4"
         style="fill:#9c39ee;fill-opacity:1;stroke-width:0"
         x="145.29698"
         y="-7.9284925">U</tspan></text><path
       style="fill:url(#linearGradient61066);fill-opacity:1;stroke-width:0"
       d="m 155.31265,-52.571204 c 0.20666,4.92111 0.22842,14.74132 0.29374,20.520512 0.0653,5.779192 0.17414,7.517253 0.97965,9.353138 0.80551,1.835885 2.30742,3.769479 4.22301,5.322844 1.91559,1.553365 4.24464,2.726553 6.82401,2.867658 2.57938,0.141104 5.40907,-0.749652 7.12859,-2.802676 1.71952,-2.053025 2.32899,-5.268434 2.6446,-6.919612 0.31562,-1.651178 0.3374,-1.738124 0.23944,-1.466559 -0.098,0.271564 -0.31563,0.901614 -0.64213,1.520767 -0.32651,0.619153 -0.76184,1.227472 -1.30599,1.770588 -0.54414,0.543116 -1.19715,1.021082 -2.04601,1.357836 -0.84885,0.336753 -1.89366,0.532287 -2.75343,0.597498 -0.85978,0.06521 -1.53455,3.3e-5 -2.33993,-0.173745 -0.80539,-0.173777 -1.74137,-0.45621 -2.48149,-0.87979 -0.74012,-0.423581 -1.28429,-0.98845 -1.64349,-1.422953 -0.3592,-0.434502 -0.53333,-0.738668 -0.71839,-1.184057 -0.18506,-0.445389 -0.38096,-1.031978 -0.52248,-1.586016 -0.14152,-0.554037 -0.22859,-1.075447 -0.27215,-2.064021 -0.0436,-0.988573 -0.0436,-2.444193 -0.0653,-7.484752 -0.0218,-5.04056 -0.0653,-13.66567 -0.10869,-17.989242 -0.0434,-4.323573 -0.0869,-4.345286 -0.88144,-4.356232 -0.79455,-0.01095 -2.33999,-0.01095 -3.43924,-0.02181 -1.09925,-0.01086 -1.75226,-0.0326 -2.07891,-0.02162 -0.32664,0.01098 -0.32664,0.05438 -0.60949,0.07601 -0.28285,0.02163 -0.84878,0.02163 -0.93584,0.03251 -0.0871,0.01087 0.30474,0.03261 0.51139,4.953716 z"
       id="path9266-5-3" /><path
       style="fill:url(#linearGradient61068);fill-opacity:1;stroke-width:0"
       d="m 184.42625,-53.32892 c 0,4.353585 0,13.060485 0,18.02344 0,4.962955 0,6.181895 -0.0435,7.498821 -0.0436,1.316926 -0.13062,2.731766 -0.27212,3.885416 -0.1415,1.15365 -0.3374,2.0461 -0.75099,3.22151 -0.41359,1.175411 -1.04483,2.633791 -1.5237,3.602407 -0.47888,0.968616 -0.80538,1.447484 -1.42573,2.122244 -0.62036,0.674759 -1.53457,1.545437 -2.36171,2.231096 -0.82713,0.685659 -1.56721,1.186296 -2.59026,1.763127 -1.02305,0.576831 -2.32906,1.2298353 -3.70037,1.7196064 -1.37131,0.4897711 -2.80792,0.8162746 -4.01598,0.9904318 -1.20807,0.1741572 -2.18758,0.1959234 -2.66651,0.2287299 -0.47893,0.032806 -0.45717,0.076327 0.0218,0.1632753 0.47897,0.086948 1.41494,0.2175482 2.22033,0.3046057 0.8054,0.087057 1.48016,0.1305896 2.04066,0.1441757 0.5605,0.013586 1.00672,-0.00275 1.47472,-0.024516 0.468,-0.021769 0.95775,-0.048969 1.51826,-0.092504 0.56051,-0.043535 1.19175,-0.1033943 1.78217,-0.1904749 0.59043,-0.087081 1.14004,-0.201358 1.58899,-0.2993149 0.44896,-0.097957 0.79722,-0.1795803 1.28426,-0.3156303 0.48703,-0.1360501 1.11283,-0.3265104 1.62708,-0.4979297 0.51424,-0.1714193 0.91692,-0.3237838 1.28968,-0.4788769 0.37275,-0.1550931 0.71559,-0.3129063 1.03937,-0.4707193 0.32378,-0.1578131 0.62851,-0.3156261 0.95774,-0.4979281 0.32923,-0.182303 0.68293,-0.389086 1.04208,-0.62036 0.35915,-0.231275 0.72375,-0.487033 1.12644,-0.791774 0.40269,-0.304742 0.84347,-0.658453 1.17269,-0.938698 0.32921,-0.280245 0.54688,-0.487028 0.8108,-0.756394 0.26393,-0.269365 0.5741,-0.601308 0.85163,-0.914209 0.27753,-0.3129 0.52241,-0.606753 0.78089,-0.941415 0.25848,-0.334662 0.53057,-0.710143 0.75368,-1.042082 0.22311,-0.33194 0.39725,-0.620353 0.57139,-0.92509 0.17413,-0.304736 0.34827,-0.625794 0.51697,-0.952298 0.16869,-0.326503 0.33194,-0.658452 0.47343,-0.965907 0.14149,-0.307456 0.2612,-0.590423 0.351,-0.821686 0.0898,-0.231262 0.14964,-0.410839 0.23127,-0.661167 0.0816,-0.250329 0.18502,-0.571389 0.27482,-0.878849 0.0898,-0.30746 0.16597,-0.6013 0.25033,-0.946858 0.0844,-0.345558 0.17685,-0.742803 0.25577,-1.140049 0.0789,-0.397245 0.14421,-0.79448 0.19863,-1.183567 0.0544,-0.389087 0.098,-0.770004 0.13333,-1.140051 0.0354,-0.370047 0.0626,-0.729197 0.0871,-1.077473 0.0245,-0.348276 0.0462,-0.685668 0.0544,-1.229843 0.008,-0.544174 0.003,-1.295135 0.005,-6.239121 0.003,-4.943986 0.0136,-14.080606 0.0111,-18.651806 -0.003,-4.5712 -0.0189,-4.57664 -0.0435,-4.57399 -0.0246,0.0027 -0.0572,0.01353 -1.15644,0.0163 -1.09926,0.0028 -3.26506,-0.0027 -4.45682,-0.0054 -1.19176,-0.0027 -1.40943,-0.0027 -1.60535,-4e-6 -0.19592,0.0027 -0.37004,0.0081 -0.43267,0.0054 -0.0626,-0.0027 -0.0136,-0.01365 0.0463,-0.01635 0.0599,-0.0027 0.13065,0.0027 0.16588,0.0054 0.0352,0.0027 0.0353,0.0027 0.0353,4.356291 z"
       id="path22972-8-7" /><rect
       style="fill:#9c39ee;fill-opacity:1;stroke-width:0"
       id="rect42990-5-5"
       width="13.760261"
       height="34.539177"
       x="199.50688"
       y="-42.467678" /><rect
       style="fill:url(#linearGradient61070);fill-opacity:1;stroke-width:0"
       id="rect42888-1-2"
       width="7.580924"
       height="34.448971"
       x="205.68622"
       y="-42.469814" /><path
       style="fill:#7b29c0;fill-opacity:1;stroke-width:0"
       d="m 201.33387,-54.558165 c 0.3827,0.16969 1.14777,0.508926 2.196,1.131909 1.04823,0.622984 2.37962,1.52964 3.3291,2.394851 0.94948,0.86521 1.51714,1.688907 1.89015,2.577482 0.37302,0.888574 0.55149,1.842074 0.64222,2.351646 0.0907,0.509572 0.0937,0.575082 0.0972,0.608015 0.004,0.03293 0.007,0.03325 0.0332,0.01904 0.0257,-0.01421 0.0724,-0.04281 0.12461,-0.07313 0.0522,-0.03032 0.10995,-0.06233 0.19767,-0.117828 0.0877,-0.0555 0.20547,-0.134456 0.33115,-0.226916 0.12568,-0.09246 0.25932,-0.198398 0.3819,-0.302299 0.12258,-0.103902 0.23412,-0.205749 0.33578,-0.301996 0.10167,-0.09625 0.19357,-0.186986 0.27604,-0.274495 0.0825,-0.08751 0.15553,-0.171768 0.22851,-0.260485 0.073,-0.08872 0.14592,-0.181907 0.22109,-0.284144 0.0752,-0.102237 0.15254,-0.213496 0.22002,-0.318555 0.0675,-0.105059 0.12505,-0.203858 0.17861,-0.297841 0.0536,-0.09398 0.10308,-0.18303 0.15474,-0.2856 0.0516,-0.102569 0.10549,-0.218685 0.15511,-0.332958 0.0496,-0.114273 0.095,-0.226787 0.13611,-0.334737 0.0411,-0.10795 0.0778,-0.211441 0.1131,-0.320104 0.0353,-0.108663 0.0692,-0.222498 0.0983,-0.329451 0.0291,-0.106952 0.0534,-0.207083 0.076,-0.318521 0.0226,-0.111439 0.0435,-0.234192 0.0611,-0.357823 0.0175,-0.12363 0.0317,-0.248212 0.0425,-0.375669 0.0109,-0.127456 0.0185,-0.25783 0.0223,-0.374463 0.004,-0.116632 0.004,-0.219522 -4.6e-4,-0.346492 -0.004,-0.126971 -0.0123,-0.278027 -0.0231,-0.418341 -0.0109,-0.140314 -0.0244,-0.269901 -0.0408,-0.390419 -0.0164,-0.120519 -0.0358,-0.232079 -0.0631,-0.351904 -0.0274,-0.119826 -0.0628,-0.247918 -0.11855,-0.443081 -0.0558,-0.195162 -0.13193,-0.457308 -0.20921,-0.67548 -0.0773,-0.218171 -0.15571,-0.392344 -0.26082,-0.621118 -0.10512,-0.228775 -0.23689,-0.512098 -0.38647,-0.754058 -0.14959,-0.241961 -0.31706,-0.442575 -0.50531,-0.650194 -0.18824,-0.20762 -0.39729,-0.422255 -0.68459,-0.632819 -0.2873,-0.210564 -0.65291,-0.41702 -1.04645,-0.607796 -0.39353,-0.190776 -0.81496,-0.365816 -1.20734,-0.493896 -0.39238,-0.128079 -0.75574,-0.209139 -1.09412,-0.255999 -0.33838,-0.04686 -0.65178,-0.05946 -0.95943,-0.05536 -0.30765,0.0041 -0.60952,0.02493 -0.96881,0.08766 -0.35928,0.06273 -0.77592,0.16742 -1.14605,0.299869 -0.37013,0.132449 -0.69366,0.292702 -0.93566,0.425937 -0.24199,0.133235 -0.40241,0.239475 -0.6079,0.391244 -0.20549,0.151769 -0.45603,0.34908 -0.65431,0.525364 -0.19828,0.176283 -0.34423,0.331535 -0.49031,0.505094 -0.14607,0.17356 -0.29224,0.365431 -0.37923,0.484547 -0.087,0.119117 -0.11474,0.165392 -0.12866,0.188622 -0.0139,0.02323 -0.0145,0.023 0.36824,0.192689 z"
       id="path43359-4-4" /><circle
       style="fill:url(#linearGradient61072);fill-opacity:1;stroke-width:0"
       id="path43199-2-6"
       cx="188.22954"
       cy="98.900208"
       r="6.5"
       transform="rotate(-41.643162)" /></g></svg>
