<?xml version="1.0" encoding="UTF-8" standalone="no"?>
<!-- Created with Inkscape (http://www.inkscape.org/) -->

<svg
   width="203.28992mm"
   height="185.45772mm"
   viewBox="0 0 203.28992 185.45772"
   version="1.1"
   id="svg5"
   xmlns="http://www.w3.org/2000/svg"
   xmlns:svg="http://www.w3.org/2000/svg">
  <defs
     id="defs2" />
  <g
     id="layer1"
     transform="translate(-3.5250927,-1.5672559)">
    <path
       style="fill:#000000;stroke-width:0"
       id="path389"
       d="m 9.8388333,139.23074 c 4.8893857,3.02646 10.5122567,4.13997 16.1185257,4.9599 4.194341,0.50886 8.454639,0.81508 12.661556,0.226 3.475289,-0.48669 4.194384,-0.82062 7.51067,-1.78208 6.73043,-2.41236 12.650594,-6.41261 18.149156,-10.90158 4.580626,-3.87029 8.01716,-8.77383 11.219771,-13.7859 2.342765,-3.86265 4.4115,-7.89114 6.401982,-11.94527 1.989264,-4.10741 3.087583,-8.555774 4.436511,-12.895744 1.310152,-4.12761 2.11917,-8.36907 2.621346,-12.66285 0.53474,-3.91641 0.968919,-7.8697 1.790412,-11.73899 0.501309,-2.96513 1.503133,-5.7924 2.229905,-8.70378 0.538341,-2.02242 1.256642,-3.96286 1.965243,-5.92734 0.282079,-0.75711 0.498678,-1.32064 0.758758,-2.108671 1.898783,-5.753205 -2.156181,6.091131 -5.838732,5.638441 -6.815143,-0.83773 -11.957077,-6.754301 -17.935611,-10.131444 -0.0161,-0.06666 -0.04034,-0.267891 -0.04849,-0.199833 -0.104266,0.862322 -0.06882,1.73617 -0.131898,2.602505 -0.07852,1.078788 -0.241641,2.156925 -0.414935,3.223692 -0.08203,0.55052 -0.134354,1.10627 -0.245996,1.65158 -0.142546,0.69614 -0.438121,1.35249 -0.625561,2.03794 -0.511287,1.86969 -0.948943,3.7534 -1.387394,5.64109 -1.05649,4.47529 -1.892366,8.97897 -2.505359,13.53688 -0.1044,0.95207 -0.22082,1.90292 -0.313199,2.85624 -0.183901,1.89791 -0.273246,3.80457 -0.476947,5.70044 -0.287414,2.67496 -0.742126,5.34237 -1.081027,8.01174 -0.69139,4.60231 -1.278227,9.216384 -1.583181,13.860844 -0.223389,4.30297 -0.274825,8.60817 -0.0093,12.90785 0.548144,4.79277 1.711778,9.65842 4.027138,13.93417 0.518396,0.95731 1.148383,1.84986 1.72258,2.7748 2.113639,2.89257 4.422417,5.66852 7.204117,7.94915 1.920473,1.57456 2.878372,2.08596 4.926399,3.36154 5.071874,3.11079 10.850555,4.14369 16.676199,4.66928 3.474568,0.0465 7.027958,0.56381 10.501488,0.16234 1.21769,-0.14069 2.41943,-0.39597 3.62915,-0.59397 3.89811,-1.03605 7.6347,-2.68376 10.93969,-5.01377 1.36968,-0.96564 3.0105,-2.34444 4.35159,-3.44804 4.53438,-4.13223 8.22693,-9.06877 11.8748,-13.97259 3.50427,-4.73879 6.76178,-9.66001 9.87874,-14.65969 3.34201,-5.4131 5.69724,-11.36616 7.57878,-17.421134 1.57513,-5.44073 2.27557,-11.05982 2.5899,-16.69781 0.081,-3.73885 0.65068,-7.39468 1.26735,-11.07086 0.85175,-3.99051 0.68567,-8.14491 1.65415,-12.10935 0.0598,-0.18523 0.24614,-0.7389 0.17995,-0.55575 -2.92623,8.09311 -0.70369,6.9855 -22.18069,3.10978 -1.96039,-0.35379 -1.19608,-3.81085 -2.02069,-5.62424 -0.14321,-0.31498 -0.0453,0.69055 -0.0657,1.03597 -0.0369,0.6255 -0.071,1.25118 -0.10645,1.87675 -0.25588,4.42723 -1.15229,8.79383 -1.77474,13.18292 -0.71366,5.56687 -1.69264,11.09472 -2.4932,16.64968 -0.84692,6.14019 -1.7778,12.26964 -2.55791,18.418894 -0.6841,6.02701 -1.21109,12.07255 -1.70614,18.11802 -0.42829,5.82476 -0.48098,11.66729 -0.52486,17.50482 0.17744,4.3346 -0.31061,8.71762 0.0707,13.04641 0.10974,1.24633 0.31508,2.4824 0.47263,3.72361 1.16268,5.17351 2.61069,10.50876 5.40192,15.0857 0.69596,1.14122 1.51,2.20608 2.265,3.30914 3.00692,3.90924 6.749,7.48032 11.44914,9.24683 1.13501,0.42659 2.32571,0.68716 3.48858,1.03074 3.49526,0.73828 6.98377,0.88591 10.53213,0.47142 2.41163,-0.2817 3.87222,-0.744 6.24245,-1.34929 5.55083,-1.82031 10.88895,-4.23607 16.12836,-6.80454 2.70103,-1.47876 5.47996,-2.87135 7.98922,-4.67228 1.86101,-1.3357 2.1941,-1.71071 3.83838,-3.1872 3.76406,-3.53231 6.14706,-8.05395 8.0758,-12.7712 0.76956,-1.92942 1.27811,-3.93754 1.75566,-5.95297 3.94812,-17.35286 -20.59252,-22.93633 -24.54062,-5.58348 v 0 c -0.14824,0.75219 -0.32648,1.4969 -0.59404,2.21764 -0.4618,1.23531 -0.93848,2.49113 -1.72704,3.55923 -1.68828,1.67806 -3.86746,2.67055 -5.93271,3.81987 -3.75574,1.86991 -7.60762,3.54972 -11.51875,5.06786 -0.41849,0.1266 -0.83159,0.27244 -1.25547,0.37948 -0.43815,0.11074 -0.90413,0.11602 -1.32796,0.27287 -0.0801,0.0297 0.29953,0.12634 0.21519,0.13867 -0.65306,0.0972 -1.33779,-0.14018 -1.99518,-0.0762 0.26645,0.14648 0.71665,0.34348 0.93959,0.60525 0.0348,0.0408 -0.075,0.16862 -0.11098,0.14748 -0.50239,-0.29656 -1.08655,-1.12368 -1.36929,-1.46123 -1.37864,-0.87998 -2.53077,-5.55893 -3.05096,-7.1664 -0.37412,-1.6534 -0.29283,-3.29575 -0.29256,-4.98753 4.3e-4,-2.64076 0.005,-5.28149 0.0177,-7.92219 0.0385,-5.21649 0.0752,-10.43759 0.442,-15.64369 0.46223,-5.67493 0.96028,-11.34934 1.59065,-17.00797 0.7576,-6.00695 1.67571,-11.992994 2.50005,-17.990934 0.80167,-5.57316 1.78785,-11.11841 2.50093,-16.70385 0.72135,-5.09044 1.74566,-10.15453 1.98395,-15.29805 0.16484,-2.93565 1.03759,-11.555976 -1.8218,-12.404678 -17.6974,-5.252856 -21.02428,-4.327252 -23.71565,5.843355 -0.89824,4.384503 -1.23373,8.823983 -1.87214,13.247553 -0.77308,4.60981 -1.42353,9.22002 -1.57862,13.8995 -0.17818,3.62925 -0.58624,7.25117 -1.55331,10.76518 -1.13448,3.99309 -2.77361,7.89282 -4.89485,11.461354 -2.69161,4.42117 -5.6357,8.69915 -8.6764,12.88679 -2.42676,3.27866 -4.89583,6.54141 -7.66257,9.54283 -1.41083,1.16227 -2.73416,2.41669 -4.38034,3.24284 0.49929,0.20814 0.44759,0.14321 -0.66855,0.16687 -1.55756,0.0329 -3.1313,-0.0201 -4.68748,-0.085 -0.52739,-0.0227 -1.05431,-0.0541 -1.581468,-0.0813 -1.93548,-0.13943 -3.980034,-0.17114 -5.724592,-1.10487 -0.565179,-0.31832 -1.41969,-0.65833 -1.906017,-1.11149 -0.829685,-0.77303 -1.510933,-1.69781 -2.269991,-2.53613 -0.125614,-0.10091 -0.317759,-0.14698 -0.383537,-0.29406 -0.623931,-1.3947 -1.093573,-2.90864 -1.280023,-4.42213 -0.336187,-3.12939 -0.0052,-6.30602 0.02672,-9.44535 0.252682,-4.12576 0.847629,-8.215284 1.435208,-12.304704 0.688812,-5.46443 1.456908,-10.91314 1.850588,-16.40981 0.493075,-3.76191 1.18784,-7.47149 2.072573,-11.16137 0.869989,-3.74643 2.027008,-7.43173 2.624271,-11.23315 0.52928,-3.59361 0.87631,-7.213744 0.8417,-10.850596 -5.998199,-3.722163 -11.020917,-10.070923 -17.99463,-11.166529 -4.740247,-0.744715 -6.455677,7.151763 -7.800901,10.68794 -0.995746,2.783734 -1.964644,5.569139 -2.720751,8.430715 -0.781716,3.26985 -1.953821,6.44139 -2.469163,9.77737 -0.887426,4.58325 -1.557592,9.21045 -2.119593,13.84472 -0.291829,2.72986 -0.819048,5.41481 -1.65089,8.03642 -0.959962,3.09931 -1.735674,6.27773 -2.994823,9.26955 -1.594541,3.25445 -3.241954,6.493144 -5.096173,9.606734 -1.718649,2.79425 -3.559631,5.56291 -5.970083,7.81397 -2.887029,2.44533 -6.016402,4.59776 -9.443061,6.22003 -0.599795,0.20512 -1.872639,0.67108 -2.555371,0.80239 -2.234302,0.42982 -4.498947,0.14875 -6.735993,-0.0876 -1.467932,-0.19983 -3.845024,-0.40686 -5.236556,-0.91306 -0.354379,-0.12886 -0.656523,-0.41273 -1.029347,-0.46936 -0.226862,-0.0345 0.374316,0.26552 0.561471,0.39828 -14.8074357,-9.87161 -28.7680235,11.06926 -13.9605867,20.9409 z" />
    <ellipse
       style="fill:#000000;stroke-width:0"
       id="path459"
       cx="158.01736"
       cy="16.358793"
       rx="14.134134"
       ry="14.791537" />
  </g>
</svg>
